<svg xmlns="http://www.w3.org/2000/svg" xmlns:xlink="http://www.w3.org/1999/xlink" viewBox="0,0,256,256" width="50px" height="50px"><g fill="none" fill-rule="nonzero" stroke="none" stroke-width="1" stroke-linecap="butt" stroke-linejoin="miter" stroke-miterlimit="10" stroke-dasharray="" stroke-dashoffset="0" font-family="none" font-weight="none" font-size="none" text-anchor="none" style="mix-blend-mode: normal"><g transform="scale(2.56,2.56)"><circle cx="14" cy="30" r="2" fill="#5000c3"></circle><circle cx="78" cy="14" r="1" fill="#f1bc19"></circle><circle cx="51" cy="51" r="37" fill="#c2b7e7"></circle><circle cx="84" cy="16" r="4" fill="#f1bc19"></circle><circle cx="88" cy="25" r="2" fill="#5000c3"></circle><circle cx="82" cy="77" r="2" fill="#fbcd59"></circle><circle cx="16" cy="64" r="4" fill="#fbcd59"></circle><circle cx="26" cy="88" r="2" fill="#5000c3"></circle><circle cx="21.5" cy="42.5" r="2.5" fill="#ffffff"></circle><circle cx="22" cy="68" r="1" fill="#f1bc19"></circle><circle cx="81" cy="35" r="1" fill="#ffffff"></circle><g><path d="M45.062,69.625c0,0 -4.062,0.625 -6.312,1.375c-0.527,1.494 -1.611,4.595 -2.208,6.304c-0.17,0.486 0.299,0.947 0.785,0.778l6.172,-2.145z" fill="#ffffff"></path><path d="M37.119,78.818c-0.343,0 -0.675,-0.135 -0.928,-0.387c-0.358,-0.358 -0.477,-0.878 -0.311,-1.356l0.264,-0.754c0.614,-1.758 1.488,-4.259 1.945,-5.554l0.114,-0.323l0.324,-0.108c2.28,-0.76 6.26,-1.377 6.428,-1.403l1.038,-0.16l-1.906,7.701l-6.53,2.269c-0.143,0.05 -0.291,0.075 -0.438,0.075zM39.294,71.561c-0.477,1.356 -1.263,3.604 -1.828,5.222l-0.203,0.581l5.649,-1.963l1.215,-4.91c-1.247,0.217 -3.353,0.618 -4.833,1.07z" fill="#000000"></path><path d="M50.083,73.042c0,0 2.152,3.079 3.234,8.467c0.102,0.509 0.62,0.815 1.105,0.63c4.311,-1.644 12.078,-4.132 12.078,-6.639c0,-3 -1.625,-6.417 -1.625,-6.417c-1.684,1.834 -8.4,2.828 -14.792,3.959z" fill="#ffffff"></path><path d="M54.132,82.892c-0.253,0 -0.503,-0.063 -0.729,-0.188c-0.398,-0.22 -0.68,-0.605 -0.771,-1.058c-1.042,-5.185 -3.101,-8.175 -3.122,-8.204l-0.628,-0.899l3.033,-0.532c5.199,-0.904 11.093,-1.928 12.445,-3.401l0.702,-0.764l0.445,0.937c0.069,0.145 1.693,3.595 1.693,6.717c0,2.473 -4.642,4.38 -10.709,6.615c-0.648,0.239 -1.263,0.465 -1.819,0.677c-0.175,0.067 -0.359,0.1 -0.54,0.1zM51.215,73.554c0.734,1.311 2.021,3.992 2.789,7.816c0.013,0.065 0.053,0.096 0.074,0.108c0.656,-0.208 1.275,-0.436 1.929,-0.677c3.423,-1.26 9.793,-3.607 9.793,-5.301c0,-1.954 -0.749,-4.141 -1.208,-5.297c-2.234,1.413 -7.013,2.243 -12.438,3.187z" fill="#000000"></path><path d="M41.782,76.134c0.463,-0.851 1.216,-2.914 2.882,-7.912l0.081,-0.243l-0.095,-0.239c-1.204,-3.01 -1.81,-5.928 -2.344,-8.503c-0.721,-3.47 -1.343,-6.466 -3.204,-8.243l-0.062,-0.059l-0.074,-0.042c-1.743,-0.999 -1.342,-2.683 -1.088,-3.362l0.132,-0.35l-0.219,-0.304c-0.713,-0.994 -1.091,-2.162 -1.091,-3.377c0,-1.623 0.693,-3.184 1.902,-4.285l0.188,-0.172l0.034,-0.253c0.051,-0.385 -0.011,-0.725 -0.199,-1.102c-0.704,-1.408 1.737,-3.088 1.763,-3.104l0.181,-0.121l2.081,-5.202c1.924,-4.81 6.294,-7.681 11.689,-7.681c4.579,0 8.985,2.132 11.501,5.564c1.749,2.386 3.427,6.517 1.491,12.646l-0.784,2.478c-1.101,3.472 -1.97,6.214 -2.65,8.637l-0.144,0.511l0.453,0.276c0.997,0.608 1.593,1.658 1.593,2.809c0,1.652 -1.245,3.052 -2.896,3.256l-0.54,0.067l-0.068,0.54c-0.422,3.315 -0.433,6.763 -0.032,12.182c-3.289,1.306 -7.333,2.209 -12.34,2.76l-0.271,0.03l-6.374,7.285z" fill="#f1bc19"></path><path d="M54.34,22.278c4.36,0 8.55,2.022 10.936,5.278c2.371,3.234 2.851,7.392 1.389,12.022l-0.783,2.474c-1.103,3.479 -1.974,6.227 -2.659,8.662l-0.287,1.022l0.907,0.552c0.787,0.48 1.258,1.307 1.258,2.211c0,1.299 -0.981,2.4 -2.282,2.561l-1.08,0.134l-0.137,1.079c-0.415,3.257 -0.439,6.629 -0.073,11.804c-3.143,1.183 -6.978,2.013 -11.681,2.53l-0.542,0.06l-0.359,0.41l-5.391,6.161l-1.015,-3.044c0.554,-1.159 1.338,-3.404 2.787,-7.752l0.162,-0.487l-0.19,-0.475c-1.181,-2.953 -1.78,-5.839 -2.309,-8.386c-0.744,-3.583 -1.386,-6.679 -3.405,-8.606l-0.123,-0.118l-0.148,-0.084c-1.17,-0.67 -1.07,-1.734 -0.78,-2.508l0.262,-0.701l-0.437,-0.607c-0.628,-0.874 -0.96,-1.901 -0.96,-2.969c0,-1.426 0.61,-2.799 1.673,-3.768l0.378,-0.344l0.068,-0.506c0.07,-0.525 -0.014,-1.005 -0.266,-1.509c-0.307,-0.615 0.863,-1.762 1.524,-2.209l0.362,-0.241l0.161,-0.404l2,-5c1.814,-4.534 5.941,-7.242 11.04,-7.242M54.34,20.878c-5.097,0 -10.105,2.535 -12.34,8.122l-2,5c0,0 -3,2 -2,4c0.137,0.273 0.16,0.476 0.131,0.697c-1.306,1.189 -2.131,2.898 -2.131,4.803c0,1.414 0.457,2.719 1.223,3.786c-0.496,1.325 -0.467,3.148 1.396,4.214c2.992,2.856 2.531,9.375 5.381,16.5c-2.454,7.363 -2.901,8.032 -2.982,8.032c-0.003,0 -0.006,-0.001 -0.008,-0.003l1.638,4.915c0.093,0.28 0.348,0.437 0.607,0.437c0.173,0 0.348,-0.07 0.478,-0.218l6.267,-7.163c4.823,-0.53 9.255,-1.436 13,-3c-0.417,-5.422 -0.455,-9.05 -0.01,-12.549c1.975,-0.244 3.51,-1.909 3.51,-3.951c0,-1.448 -0.777,-2.705 -1.929,-3.407c0.833,-2.964 1.961,-6.445 3.429,-11.093c3.765,-11.924 -5.072,-19.122 -13.66,-19.122z" fill="#000000"></path><path d="M37.626,47c-0.709,-0.985 -1.126,-2.194 -1.126,-3.5c0,-2.841 1.974,-5.22 4.625,-5.842c1.422,-0.241 3.25,-0.158 4.281,0.591c1.845,1.023 3.094,2.991 3.094,5.25c0,1.306 -0.417,2.515 -1.126,3.5c-1.089,1.514 -2.866,2.5 -4.874,2.5" fill="#f1bc19"></path><path d="M36.5,43.5c0,1.368 0.474,2.616 1.245,3.624c0.001,0 0.004,0.001 0.005,0.001c1.75,-2.875 9.5,0 9.5,0l-0.625,-4.625c-4.09,-2.337 -8.943,-1.616 -9.558,-1.512c-0.359,0.763 -0.567,1.611 -0.567,2.512z" fill="#ffffff"></path><path d="M37.75,47.625c-0.031,0 -0.063,-0.003 -0.094,-0.009c-0.119,-0.021 -0.23,-0.086 -0.309,-0.188c-0.881,-1.152 -1.347,-2.511 -1.347,-3.928c0,-0.941 0.207,-1.858 0.615,-2.725c0.069,-0.148 0.207,-0.253 0.369,-0.28c0.563,-0.096 5.633,-0.862 9.889,1.571c0.135,0.077 0.227,0.213 0.247,0.367l0.625,4.625c0.023,0.174 -0.046,0.347 -0.183,0.457c-0.137,0.11 -0.322,0.139 -0.486,0.078c-2.049,-0.759 -7.64,-2.276 -8.899,-0.209c-0.091,0.15 -0.252,0.241 -0.427,0.241zM41.031,45.339c2.074,0 4.396,0.652 5.614,1.049l-0.482,-3.572c-3.53,-1.91 -7.607,-1.531 -8.75,-1.374c-0.274,0.66 -0.413,1.351 -0.413,2.058c0,0.99 0.271,1.946 0.787,2.8c0.776,-0.712 1.963,-0.961 3.244,-0.961z" fill="#000000"></path><path d="M36.5,44c-0.276,0 -0.5,-0.224 -0.5,-0.5c0,-3.034 2.061,-5.637 5.011,-6.329c0.273,-0.064 0.538,0.105 0.601,0.373c0.063,0.269 -0.104,0.538 -0.372,0.601c-2.497,0.585 -4.24,2.787 -4.24,5.355c0,0.276 -0.224,0.5 -0.5,0.5z" fill="#000000"></path><path d="M47.524,40.719c-0.163,0 -0.322,-0.08 -0.418,-0.226c-0.49,-0.749 -1.162,-1.373 -1.942,-1.806c-0.242,-0.134 -0.329,-0.438 -0.195,-0.68c0.135,-0.242 0.44,-0.329 0.68,-0.195c0.923,0.511 1.716,1.249 2.294,2.133c0.151,0.231 0.087,0.541 -0.145,0.692c-0.084,0.056 -0.179,0.082 -0.274,0.082z" fill="#000000"></path><path d="M53,51c-3.859,0 -7,-3.14 -7,-7c0,-3.048 1.947,-5.726 4.847,-6.662c0.262,-0.084 0.544,0.06 0.629,0.322c0.085,0.263 -0.06,0.545 -0.322,0.63c-2.485,0.802 -4.154,3.097 -4.154,5.71c0,3.308 2.691,6 6,6c3.309,0 6,-2.692 6,-6c0,-1.617 -0.634,-3.134 -1.784,-4.27c-0.196,-0.194 -0.198,-0.51 -0.004,-0.707c0.194,-0.197 0.511,-0.198 0.707,-0.004c1.342,1.325 2.081,3.094 2.081,4.981c0,3.86 -3.141,7 -7,7z" fill="#000000"></path><path d="M46.819,41.994c-0.205,0.632 -0.319,1.305 -0.319,2.006c0,3.59 2.91,6.5 6.5,6.5c3.446,0 6.258,-2.684 6.478,-6.073c-2.6,-1.228 -7.415,-2.987 -12.659,-2.433z" fill="#ffffff"></path><path d="M53,51c-3.859,0 -7,-3.14 -7,-7c0,-0.73 0.115,-1.457 0.344,-2.161c0.061,-0.188 0.227,-0.322 0.423,-0.343c5.457,-0.574 10.44,1.305 12.926,2.478c0.186,0.088 0.299,0.28 0.285,0.485c-0.24,3.668 -3.304,6.541 -6.978,6.541zM47.203,42.459c-0.135,0.505 -0.203,1.022 -0.203,1.541c0,3.308 2.691,6 6,6c3.035,0 5.585,-2.288 5.948,-5.268c-2.426,-1.106 -6.882,-2.695 -11.745,-2.273z" fill="#000000"></path><path d="M50,71c0,0 7.875,-1.125 7.75,-9c-0.127,-8.015 -7.877,-9.737 -10.875,-9.625c-4.875,-0.25 -6.375,-0.375 -8.125,-1c0,0 -3.75,2.625 -3.75,7.625c-1.875,0.75 -2,4 1,5c3,1 4,1 4,1c0,0 0,2 2,2c1,1 3,4 8,4z" fill="#c29b67"></path><path d="M50,71.5c-4.606,0 -6.783,-2.416 -7.952,-3.714c-0.097,-0.107 -0.185,-0.205 -0.268,-0.293c-1.503,-0.097 -2.087,-1.194 -2.237,-2.037c-0.566,-0.082 -1.701,-0.315 -3.701,-0.982c-1.927,-0.642 -2.649,-2.103 -2.684,-3.256c-0.032,-1.088 0.487,-2.047 1.347,-2.534c0.149,-4.995 3.8,-7.608 3.958,-7.719c0.134,-0.093 0.303,-0.115 0.455,-0.061c1.657,0.592 3.082,0.72 7.982,0.972c1.816,-0.075 5.692,0.514 8.462,3.14c1.871,1.774 2.843,4.121 2.888,6.976c0.131,8.22 -8.096,9.491 -8.18,9.503c-0.023,0.003 -0.047,0.005 -0.07,0.005zM38.843,51.936c-0.74,0.611 -3.343,3.042 -3.343,7.064c0,0.204 -0.124,0.388 -0.314,0.464c-0.647,0.259 -1.051,0.936 -1.027,1.725c0.031,1.056 0.778,1.929 2,2.337c2.834,0.945 3.837,0.974 3.847,0.974c0.272,0.005 0.495,0.228 0.495,0.5c0.003,0.248 0.089,1.5 1.5,1.5c0.133,0 0.26,0.053 0.354,0.146c0.129,0.128 0.273,0.289 0.438,0.471c1.062,1.179 3.036,3.37 7.172,3.383c0.611,-0.097 7.4,-1.339 7.287,-8.492c-0.041,-2.576 -0.907,-4.684 -2.576,-6.266c-2.533,-2.403 -6.212,-2.929 -7.78,-2.867c-4.816,-0.245 -6.378,-0.379 -8.053,-0.939z" fill="#000000"></path><path d="M41.117,65.505c-0.248,0 -0.498,-0.002 -0.749,-0.005c-0.276,-0.004 -0.497,-0.231 -0.493,-0.507c0.004,-0.276 0.221,-0.494 0.507,-0.493c3.1,0.042 5.931,-0.178 8.442,-0.654c0.267,-0.052 0.533,0.126 0.584,0.398c0.052,0.271 -0.127,0.533 -0.398,0.584c-2.373,0.45 -5.025,0.677 -7.893,0.677z" fill="#000000"></path><path d="M50.909,64.387c-0.222,0 -0.424,-0.148 -0.483,-0.371c-0.071,-0.267 0.088,-0.541 0.354,-0.612c1.833,-0.489 2.723,-0.964 2.731,-0.968c0.241,-0.131 0.546,-0.041 0.678,0.201c0.131,0.242 0.042,0.545 -0.2,0.677c-0.039,0.021 -0.987,0.532 -2.951,1.056c-0.043,0.012 -0.087,0.017 -0.129,0.017z" fill="#000000"></path><path d="M54.874,64.375c-0.26,0 -0.479,-0.201 -0.498,-0.464c-0.096,-1.351 -2.226,-1.92 -2.247,-1.926c-0.269,-0.067 -0.431,-0.338 -0.364,-0.606c0.066,-0.268 0.334,-0.431 0.606,-0.364c0.116,0.029 2.854,0.737 3.003,2.824c0.02,0.275 -0.188,0.515 -0.464,0.534c-0.012,0.002 -0.023,0.002 -0.036,0.002z" fill="#000000"></path><path d="M61.313,27.188c-0.018,0 -0.036,-0.002 -0.055,-0.006c-0.135,-0.03 -0.22,-0.164 -0.189,-0.299c0.014,-0.061 1.338,-6.143 -1.689,-8.098c-0.116,-0.075 -0.149,-0.229 -0.074,-0.346c0.075,-0.117 0.23,-0.149 0.346,-0.074c3.32,2.144 1.965,8.364 1.906,8.628c-0.028,0.116 -0.131,0.195 -0.245,0.195z" fill="#000000"></path><path d="M53.979,18.771c-0.09,0 -0.177,-0.049 -0.222,-0.134c-0.063,-0.123 -0.017,-0.273 0.105,-0.337c1.214,-0.635 2.621,-0.818 4.181,-0.546c0.136,0.024 0.227,0.153 0.203,0.289c-0.023,0.135 -0.148,0.228 -0.289,0.203c-1.449,-0.253 -2.749,-0.086 -3.862,0.496c-0.037,0.02 -0.077,0.029 -0.116,0.029z" fill="#000000"></path><path d="M51,22.25c-0.026,0 -0.053,-0.004 -0.078,-0.013c-0.131,-0.043 -0.202,-0.184 -0.159,-0.315c0.019,-0.057 0.476,-1.416 1.692,-2.598c0.099,-0.096 0.257,-0.093 0.354,0.005c0.096,0.099 0.094,0.257 -0.006,0.354c-1.124,1.092 -1.562,2.382 -1.565,2.395c-0.036,0.105 -0.134,0.172 -0.238,0.172z" fill="#000000"></path><path d="M65.406,29.438c-0.02,0 -0.04,-0.002 -0.061,-0.008c-0.134,-0.033 -0.216,-0.169 -0.182,-0.303c1.136,-4.546 -0.323,-7.539 -2.274,-8.489c-1.57,-0.766 -3.37,-0.185 -4.692,1.515c-0.085,0.109 -0.242,0.128 -0.351,0.044c-0.109,-0.085 -0.129,-0.242 -0.044,-0.351c1.475,-1.896 3.508,-2.533 5.306,-1.658c2.133,1.038 3.745,4.242 2.54,9.059c-0.028,0.115 -0.129,0.191 -0.242,0.191z" fill="#000000"></path><path d="M60.168,52.812c-0.147,0 -0.293,-0.064 -0.392,-0.188c-0.172,-0.216 -0.138,-0.529 0.078,-0.702c0.082,-0.067 2.048,-1.618 3.971,-0.776c0.253,0.111 0.368,0.406 0.258,0.658c-0.111,0.253 -0.405,0.368 -0.658,0.258c-1.367,-0.598 -2.931,0.628 -2.945,0.641c-0.093,0.073 -0.203,0.109 -0.312,0.109z" fill="#000000"></path><path d="M62.063,58.142c-0.943,0 -1.749,-0.301 -2.4,-0.898c-0.203,-0.187 -0.218,-0.503 -0.03,-0.707c0.188,-0.204 0.505,-0.216 0.706,-0.031c0.53,0.486 1.223,0.695 2.055,0.621c0.268,-0.022 0.519,0.178 0.543,0.454c0.024,0.275 -0.179,0.518 -0.453,0.542c-0.145,0.013 -0.285,0.019 -0.421,0.019z" fill="#000000"></path><path d="M61.125,55.375c-0.028,0 -0.058,-0.005 -0.085,-0.015c-0.13,-0.047 -0.197,-0.19 -0.15,-0.32c0.548,-1.506 2.185,-1.678 2.254,-1.684c0.137,-0.018 0.259,0.088 0.271,0.225c0.014,0.137 -0.087,0.259 -0.224,0.273c-0.057,0.006 -1.394,0.152 -1.831,1.357c-0.037,0.101 -0.132,0.164 -0.235,0.164z" fill="#000000"></path><path d="M66.5,50.75c-0.016,0 -0.032,-0.001 -0.049,-0.005c-0.136,-0.027 -0.224,-0.159 -0.196,-0.294l0.838,-4.19l-3.416,3.416c-0.071,0.072 -0.178,0.093 -0.272,0.054c-0.094,-0.039 -0.154,-0.13 -0.154,-0.231v-5.097l-2.535,4.226c-0.071,0.118 -0.225,0.156 -0.344,0.086c-0.118,-0.071 -0.156,-0.225 -0.086,-0.343l3,-5c0.06,-0.097 0.177,-0.142 0.281,-0.112c0.108,0.03 0.184,0.129 0.184,0.241v5.396l3.573,-3.573c0.077,-0.078 0.198,-0.095 0.295,-0.044c0.097,0.052 0.148,0.161 0.127,0.27l-1,5c-0.024,0.118 -0.129,0.2 -0.246,0.2z" fill="#000000"></path><path d="M42.696,80.774c-1.07,-3.374 -2.574,-6.758 -4.126,-9.283l1.193,-0.733c1.608,2.618 3.163,6.114 4.267,9.592z" fill="#000000"></path><path d="M62.368,71.24l-0.486,-1.313c1.942,-0.719 2.092,-1.232 2.093,-1.237c-0.066,-0.15 -0.737,-0.49 -1.475,-0.49v-1.4c1.061,0 2.647,0.516 2.854,1.663c0.28,1.567 -2.178,2.477 -2.986,2.777z" fill="#000000"></path><circle cx="53" cy="45" r="1" fill="#000000"></circle><circle cx="43" cy="44" r="1" fill="#000000"></circle><path d="M39.846,46.438c-3.09,0 -3.491,4.03 -0.002,4.781c5.186,1.116 2.992,-4.594 0.002,-4.781z" fill="#f1bc19"></path><g fill="#000000"><path d="M40.125,52.25c-0.036,0 -0.072,-0.004 -0.109,-0.012c-2.507,-0.562 -3.462,-2.33 -3.296,-3.833c0.162,-1.459 1.413,-3.03 3.78,-3.03c0.276,0 0.5,0.224 0.5,0.5c0,0.276 -0.224,0.5 -0.5,0.5c-1.752,0 -2.672,1.109 -2.786,2.139c-0.108,0.983 0.486,2.292 2.521,2.748c0.27,0.061 0.438,0.328 0.379,0.597c-0.053,0.233 -0.26,0.391 -0.489,0.391z"></path></g><g fill="#000000"><path d="M43.922,34.586l-0.469,-0.172c0,0 1.125,-3.064 1.813,-4.877c0.048,-0.129 0.192,-0.195 0.322,-0.145c0.129,0.049 0.194,0.193 0.145,0.322c-0.686,1.811 -1.811,4.872 -1.811,4.872z"></path></g><g fill="#000000"><path d="M46.176,28.496c-0.045,0 -0.09,-0.012 -0.131,-0.037c-0.118,-0.072 -0.154,-0.226 -0.082,-0.344c0.831,-1.35 2.024,-2.42 3.548,-3.178c0.125,-0.06 0.273,-0.011 0.335,0.113c0.062,0.124 0.012,0.274 -0.112,0.335c-1.438,0.716 -2.563,1.722 -3.345,2.992c-0.047,0.077 -0.129,0.119 -0.213,0.119z"></path></g><g fill="#000000"><path d="M51.244,24.771c-0.107,0 -0.206,-0.07 -0.239,-0.177c-0.04,-0.132 0.034,-0.272 0.167,-0.312c1.842,-0.558 3.9,-0.661 5.512,-0.275c0.134,0.032 0.217,0.167 0.185,0.302c-0.031,0.135 -0.167,0.216 -0.302,0.185c-1.525,-0.367 -3.489,-0.267 -5.25,0.267c-0.024,0.006 -0.048,0.01 -0.073,0.01z"></path></g><g fill="#000000"><path d="M37.313,60.406c-0.138,0 -0.25,-0.112 -0.25,-0.25c0,-1.418 0.195,-2.687 0.58,-3.771c0.046,-0.13 0.184,-0.199 0.319,-0.152c0.13,0.046 0.198,0.189 0.151,0.319c-0.365,1.031 -0.551,2.243 -0.551,3.604c0.001,0.138 -0.112,0.25 -0.249,0.25z"></path></g><g fill="#000000"><path d="M38.583,55.267c-0.047,0 -0.095,-0.013 -0.137,-0.041c-0.115,-0.075 -0.148,-0.23 -0.072,-0.346c0.571,-0.877 1.118,-1.216 1.142,-1.23c0.117,-0.072 0.27,-0.034 0.343,0.083c0.071,0.117 0.035,0.271 -0.082,0.344c-0.005,0.003 -0.48,0.303 -0.984,1.076c-0.049,0.074 -0.129,0.114 -0.21,0.114z"></path></g></g></g></g></svg>